<?xml version="1.0" encoding="UTF-8" standalone="no"?>
<svg
   xmlns:sketch="http://www.bohemiancoding.com/sketch/ns"
   xmlns:dc="http://purl.org/dc/elements/1.1/"
   xmlns:cc="http://creativecommons.org/ns#"
   xmlns:rdf="http://www.w3.org/1999/02/22-rdf-syntax-ns#"
   xmlns:svg="http://www.w3.org/2000/svg"
   xmlns="http://www.w3.org/2000/svg"
   xmlns:xlink="http://www.w3.org/1999/xlink"
   xmlns:sodipodi="http://sodipodi.sourceforge.net/DTD/sodipodi-0.dtd"
   xmlns:inkscape="http://www.inkscape.org/namespaces/inkscape"
   width="46px"
   height="46px"
   viewBox="0 0 46 46"
   version="1.1"
   id="svg2"
   inkscape:version="0.48.1 r9760"
   sodipodi:docname="btn_google_light_normal_gk.svg">
  <sodipodi:namedview
     pagecolor="#ffffff"
     bordercolor="#666666"
     borderopacity="1"
     objecttolerance="10"
     gridtolerance="10"
     guidetolerance="10"
     inkscape:pageopacity="0"
     inkscape:pageshadow="2"
     inkscape:window-width="1301"
     inkscape:window-height="905"
     id="namedview56"
     showgrid="false"
     inkscape:zoom="4"
     inkscape:cx="-61.75"
     inkscape:cy="23"
     inkscape:window-x="0"
     inkscape:window-y="0"
     inkscape:window-maximized="0"
     inkscape:current-layer="svg2" />
  <defs
     id="defs8" />
  <g
     id="Google-Button"
     sketch:type="MSPage"
     transform="matrix(0.75,0,0,0.75,5.75,5.75)"
     style="fill:none;stroke:none">
    <g
       id="9-PATCH"
       sketch:type="MSArtboardGroup"
       transform="translate(-608,-160)" />
    <g
       id="btn_google_light_normal"
       sketch:type="MSArtboardGroup"
       transform="translate(-1,-1)">
      <g
         id="button"
         sketch:type="MSLayerGroup"
         transform="translate(4,4)"
         style="filter:url(#filter-1)">
        <g
           id="button-bg">
          <use
             sketch:type="MSShapeGroup"
             xlink:href="#path-2"
             id="use37"
             style="fill:#ffffff;fill-rule:evenodd"
             x="0"
             y="0"
             width="46"
             height="46" />
          <use
             xlink:href="#path-2"
             id="use39"
             style="fill:none"
             x="0"
             y="0"
             width="46"
             height="46" />
          <use
             xlink:href="#path-2"
             id="use41"
             style="fill:none"
             x="0"
             y="0"
             width="46"
             height="46" />
          <use
             xlink:href="#path-2"
             id="use43"
             style="fill:none"
             x="0"
             y="0"
             width="46"
             height="46" />
        </g>
      </g>
      <g
         id="logo_googleg_48dp"
         sketch:type="MSLayerGroup"
         transform="translate(15,15)">
        <path
           d="m 17.64,9.2045455 c 0,-0.6381819 -0.05727,-1.2518182 -0.163636,-1.8409091 L 9,7.3636364 9,10.845 l 4.843636,0 C 13.635,11.97 13.000909,12.923182 12.047727,13.561364 l 0,2.258182 2.908637,0 C 16.658182,14.252727 17.64,11.945455 17.64,9.2045455 l 0,0 z"
           id="Shape"
           sketch:type="MSShapeGroup"
           inkscape:connector-curvature="0"
           style="fill:#4285f4" />
        <path
           d="m 9,18 c 2.43,0 4.467273,-0.805909 5.956364,-2.180454 l -2.908637,-2.258182 c -0.805909,0.54 -1.836818,0.859091 -3.047727,0.859091 -2.3440909,0 -4.3281818,-1.583182 -5.0359091,-3.710455 l -3.00681817,0 0,2.331818 C 2.4381818,15.983182 5.4818182,18 9,18 l 0,0 z"
           id="path47"
           sketch:type="MSShapeGroup"
           inkscape:connector-curvature="0"
           style="fill:#34a853" />
        <path
           d="M 3.9640909,10.71 C 3.7840909,10.17 3.6818182,9.5931818 3.6818182,9 c 0,-0.5931818 0.1022727,-1.17 0.2822727,-1.71 l 0,-2.3318182 -3.00681817,0 C 0.34772727,6.1731818 0,7.5477273 0,9 c 0,1.452273 0.34772727,2.826818 0.95727273,4.041818 L 3.9640909,10.71 l 0,0 z"
           id="path49"
           sketch:type="MSShapeGroup"
           inkscape:connector-curvature="0"
           style="fill:#fbbc05" />
        <path
           d="m 9,3.5795455 c 1.321364,0 2.507727,0.4540909 3.440455,1.3459091 L 15.021818,2.3440909 C 13.463182,0.89181818 11.425909,0 9,0 5.4818182,0 2.4381818,2.0168182 0.95727273,4.9581818 L 3.9640909,7.29 C 4.6718182,5.1627273 6.6559091,3.5795455 9,3.5795455 l 0,0 z"
           id="path51"
           sketch:type="MSShapeGroup"
           inkscape:connector-curvature="0"
           style="fill:#ea4335" />
        <path
           d="M 0,0 18,0 18,18 0,18 0,0 z"
           id="path53"
           sketch:type="MSShapeGroup"
           inkscape:connector-curvature="0" />
      </g>
      <g
         id="handles_square"
         sketch:type="MSLayerGroup" />
    </g>
  </g>
  <metadata
     id="metadata3074">
    <rdf:RDF>
      <cc:Work
         rdf:about="">
        <dc:title />
        <dc:format>image/svg+xml</dc:format>
        <dc:type
           rdf:resource="http://purl.org/dc/dcmitype/StillImage" />
      </cc:Work>
    </rdf:RDF>
  </metadata>
</svg>
